<?xml version="1.0" encoding="UTF-8" standalone="no"?>
<svg
   width="24.794174"
   viewBox="0 0 121.6326 22.593405"
   version="1.1"
   id="svg83"
   height="22.593405"
   xmlns="http://www.w3.org/2000/svg"
   xmlns:svg="http://www.w3.org/2000/svg">
  <defs
     id="defs61">
    <style
       id="style59">.cls-1{fill:#3769b2}.cls-3{fill:#9a6f8f}</style>
  </defs>
  <path
     d="m 49.481394,-14.827293 c -1.749252,-1.08878 -3.780409,-1.6383 -5.84,-1.58 h -0.31 c -4.040732,-0.11713 -7.78988,2.0958 -9.64,5.69 l -1.83,3.2700003 21.71,-3.7800003 c -1.065199,-1.5014 -2.465546,-2.73398 -4.09,-3.6 z m 22.25,-24.77 c -0.793161,-1.63991 -1.990774,-3.05089 -3.48,-4.1 -0.955204,-0.8263 -2.08777,-1.42167 -3.31,-1.74 -1.208265,-0.46217 -2.497192,-0.67643 -3.79,-0.63 -2.372938,-0.0257 -4.694549,0.69106 -6.64,2.05 -1.754639,1.12905 -3.171307,2.71157 -4.1,4.58 l -10.41,18.79 c 1.719063,-0.63423 3.537683,-0.95596 5.37,-0.95 h 1.57 c 2.040637,0.18475 4.024988,0.76918 5.84,1.72 l 0.41,0.25 c 1.150833,0.63415 2.185557,1.45923 3.06,2.44 1.112482,0.97196 2.025999,2.15037 2.69,3.47 l 0.06,0.11 24.840002,-4.27 z"
     style="fill:#a2335b"
     id="path65" />
  <path
     d="m 1.3713938,47.192707 a 11.73,11.73 0 0 0 -1.36999988,5.68 11.59,11.59 0 0 0 3.26999988,8.25 11.71,11.71 0 0 0 8.5300002,3.64 12.1,12.1 0 0 0 6.2,-1.78 12.28,12.28 0 0 0 4.43,-4.58 l 6.47,-11.93 -20.7399988,-11.6 z"
     class="cls-3"
     id="path67" />
  <path
     d="m 120.0514,46.942707 -35.830004,-64.16 -0.38,-0.66 -24.840002,4.29 0.41,0.74 39.790004,71 c 1.094372,1.855 2.612452,3.42449 4.430002,4.58 1.857,1.12072 3.9811,1.72169 6.15,1.74 3.08093,0.0443 6.04771,-1.16476 8.22,-3.35 2.33888,-2.21807 3.65327,-5.3067 3.63,-8.53 0.0305,-1.99645 -0.51836,-3.95895 -1.58,-5.65 z M 55.171394,-7.8772927 c -0.28122,-0.91479 -0.674186,-1.79141 -1.17,-2.6100003 -0.14,-0.26 -0.3,-0.5 -0.46,-0.74 l -21.68,3.7800003 -0.54,1 -23.2099988,41.3199997 20.7399988,11.6 25.69,-45.9999997 c 0.739591,-1.52666 1.116068,-3.2036999 1.1,-4.9 0.0052,-1.1663 -0.153021,-2.32759 -0.47,-3.45 z"
     style="fill:#e71c48"
     id="path69" />
</svg>
